<svg width="180" height="130" viewBox="0 0 180 130" fill="none" xmlns="http://www.w3.org/2000/svg">
<path fill-rule="evenodd" clip-rule="evenodd" d="M0 8.125C0 5.97012 0.888947 3.90349 2.47129 2.37976C4.05362 0.856023 6.19974 0 8.4375 0H171.562C173.8 0 175.946 0.856023 177.529 2.37976C179.111 3.90349 180 5.97012 180 8.125C180 10.2799 179.111 12.3465 177.529 13.8702C175.946 15.394 173.8 16.25 171.562 16.25H8.4375C6.19974 16.25 4.05362 15.394 2.47129 13.8702C0.888947 12.3465 0 10.2799 0 8.125ZM0 65C0 62.8451 0.888947 60.7785 2.47129 59.2548C4.05362 57.731 6.19974 56.875 8.4375 56.875H171.562C173.8 56.875 175.946 57.731 177.529 59.2548C179.111 60.7785 180 62.8451 180 65C180 67.1549 179.111 69.2215 177.529 70.7452C175.946 72.269 173.8 73.125 171.562 73.125H8.4375C6.19974 73.125 4.05362 72.269 2.47129 70.7452C0.888947 69.2215 0 67.1549 0 65ZM0 121.875C0 119.72 0.888947 117.653 2.47129 116.13C4.05362 114.606 6.19974 113.75 8.4375 113.75H171.562C173.8 113.75 175.946 114.606 177.529 116.13C179.111 117.653 180 119.72 180 121.875C180 124.03 179.111 126.097 177.529 127.62C175.946 129.144 173.8 130 171.562 130H8.4375C6.19974 130 4.05362 129.144 2.47129 127.62C0.888947 126.097 0 124.03 0 121.875Z" fill="#7ABE55"/>
</svg>
